# xmcd
#
# Track frame offsets:
#	150
#	11933
#	30217
#	45623
#	60737
#	75245
#	92204
#	107437
#	123636
#	139140
#	153803
#	173922
#	187108
#	210617
#	226015
#	229928
#	245508
#	266072
#	285061
#
# Disc length: 4077 seconds
#
# Revision: 1
# Processed by: cddbd v1.4PL0 Copyright (c) Steve Scherf et al.
# Submitted via: audiograbber 1.80
#
DISCID=f40feb13
DTITLE=Martina McBride - Greatest Hits
DYEAR=1900
DGENRE=
TTITLE0=My Baby Loves Me
TTITLE1=Life #9
TTITLE2=Independence Day
TTITLE3=Strangers
TTITLE4=Safe in the Arms of Love
TTITLE5=Wild Angels
TTITLE6=Valentine
TTITLE7=A Broken Wing
TTITLE8=Happy Girl
TTITLE9=Wrong Again
TTITLE10=Whatever You Say
TTITLE11=I Love You
TTITLE12=Love's the Only House
TTITLE13=There You Are
TTITLE14=When God-Fearin Women Get the Blues (Intro)
TTITLE15=When God-Fearin Women Get the Blues
TTITLE16=Where Would You Be
TTITLE17=Concrete Angel
TTITLE18=Blessed
EXTD=
EXTT0=
EXTT1=
EXTT2=
EXTT3=
EXTT4=
EXTT5=
EXTT6=
EXTT7=
EXTT8=
EXTT9=
EXTT10=
EXTT11=
EXTT12=
EXTT13=
EXTT14=
EXTT15=
EXTT16=
EXTT17=
EXTT18=
PLAYORDER=
